<?xml version="1.0" encoding="UTF-8" standalone="no"?>
<!-- Created with Inkscape (http://www.inkscape.org/) -->

<svg
   xmlns:dc="http://purl.org/dc/elements/1.1/"
   xmlns:cc="http://creativecommons.org/ns#"
   xmlns:rdf="http://www.w3.org/1999/02/22-rdf-syntax-ns#"
   xmlns:svg="http://www.w3.org/2000/svg"
   xmlns="http://www.w3.org/2000/svg"
   xmlns:sodipodi="http://sodipodi.sourceforge.net/DTD/sodipodi-0.dtd"
   xmlns:inkscape="http://www.inkscape.org/namespaces/inkscape"
   width="744.09448819"
   height="1052.3622047"
   id="svg2"
   version="1.1"
   inkscape:version="0.48.4 r9939"
   sodipodi:docname="logo.svg"
   inkscape:export-filename="/home/yonas/Desktop/Designs/logo.png"
   inkscape:export-xdpi="109.82"
   inkscape:export-ydpi="109.82">
  <defs
     id="defs4" />
  <sodipodi:namedview
     id="base"
     pagecolor="#ffffff"
     bordercolor="#666666"
     borderopacity="1.0"
     inkscape:pageopacity="0.0"
     inkscape:pageshadow="2"
     inkscape:zoom="0.97501663"
     inkscape:cx="198.98017"
     inkscape:cy="570.21472"
     inkscape:document-units="px"
     inkscape:current-layer="layer1"
     showgrid="false"
     showguides="true"
     inkscape:guide-bbox="true"
     inkscape:snap-smooth-nodes="false"
     inkscape:snap-global="false"
     inkscape:window-width="1871"
     inkscape:window-height="1056"
     inkscape:window-x="49"
     inkscape:window-y="24"
     inkscape:window-maximized="1">
    <sodipodi:guide
       orientation="1,0"
       position="387.94326,700"
       id="guide2996" />
  </sodipodi:namedview>
  <metadata
     id="metadata7">
    <rdf:RDF>
      <cc:Work
         rdf:about="">
        <dc:format>image/svg+xml</dc:format>
        <dc:type
           rdf:resource="http://purl.org/dc/dcmitype/StillImage" />
        <dc:title></dc:title>
      </cc:Work>
    </rdf:RDF>
  </metadata>
  <g
     inkscape:label="Layer 1"
     inkscape:groupmode="layer"
     id="layer1">
    <path
       style="fill:#ff0000;stroke:#ff0000;stroke-width:1px;stroke-linecap:butt;stroke-linejoin:miter;stroke-opacity:1"
       d="m 146.02777,389.28466 c -1.1673,-0.0408 -1.8125,0.65051 -1.8125,2.21875 0,15.12724 -3.3965,54.47686 -24.2813,113.96875 -17.0998,48.70989 32.3585,88.21874 76.84376,88.21875 l 0.5,-36.3125 -1.6875,-119.9375 c 0,0 0.88981,-0.976 1.6875,-1.84375 -7.19523,-7.82624 -42.70736,-46.01355 -51.24996,-46.3125 z m 51.24996,46.3125 c 0.81063,0.88172 1.71875,1.84375 1.71875,1.84375 l -1.71875,119.9375 0.53125,36.3125 c 44.4853,-10e-6 93.94355,-39.50887 76.84375,-88.21875 -20.8848,-59.4919 -24.28125,-98.84151 -24.28125,-113.96875 0,-13.05611 -44.97072,35.25736 -53.09375,44.09375 z"
       id="path3209-9"
       inkscape:connector-curvature="0" />
    <path
       style="stroke:#ff0000;stroke-width:0.97087377"
       d=""
       id="path4029"
       inkscape:connector-curvature="0" />
    <path
       style="fill:#ff0000;stroke:#ff0000;stroke-width:0.97087377"
       d="m 186.72933,592.53184 c -35.60086,-5.53214 -64.00104,-29.8888 -68.94647,-59.1301 -1.69302,-10.01052 -0.56753,-17.40322 5.5339,-36.34906 8.76131,-27.20514 16.70768,-59.41513 18.57568,-75.29509 0.37688,-3.20388 0.87328,-7.13592 1.10311,-8.73786 0.22983,-1.60194 0.62252,-6.84466 0.87265,-11.65049 0.25012,-4.80582 0.64885,-9.28398 0.88605,-9.95145 1.45254,-4.08736 9.55063,2.04525 32.61563,24.69953 13.74032,13.49564 19.54302,19.80213 18.56543,20.17726 -1.17249,0.44993 -1.30447,2.04892 -0.75199,9.11124 0.36854,4.71105 0.66512,21.85143 0.65907,38.08973 -0.008,20.29907 0.39739,31.95104 1.29603,37.29117 1.27138,7.5552 1.30815,7.10516 1.34838,-16.50486 0.0228,-13.34951 0.30001,-34.75728 0.61612,-47.57281 l 0.57475,-23.30097 13.80382,-13.93848 c 20.26319,-20.46088 33.83816,-31.39934 36.127,-29.1105 0.21346,0.21345 0.61779,4.30719 0.8985,9.09718 1.61919,27.62899 8.01831,57.92583 20.19256,95.60228 4.5611,14.11553 5.9411,19.83202 6.44539,26.69903 1.27635,17.3808 -5.80314,33.88603 -20.47593,47.73793 -12.58813,11.88387 -32.53826,21.14779 -49.78191,23.11643 -3.19846,0.36516 -6.48212,0.84497 -7.29701,1.06625 -1.1789,0.32013 -1.44234,-0.44 -1.28936,-3.7203 l 0.19227,-4.12264 -0.65239,3.8076 c -0.35882,2.09419 -1.08929,3.8987 -1.62327,4.01004 -0.53398,0.11134 -4.80358,-0.39313 -9.48801,-1.12106 l 0,0 z"
       id="path4035"
       inkscape:connector-curvature="0" />
    <path
       style="fill:#ff0000;stroke:#ff0000;stroke-width:0.97087377"
       d="m 193.71601,593.72758 c -0.22621,-0.20549 -2.8142,-0.60987 -5.75109,-0.89863 -21.57648,-2.12141 -47.23751,-16.69279 -59.33477,-33.69272 -11.4527,-16.09414 -14.23177,-30.72777 -9.31111,-49.02912 1.29214,-4.80583 5.20749,-18.56796 8.70079,-30.58253 9.25171,-31.81957 13.48295,-52.59031 15.31879,-75.19841 0.55785,-6.86989 1.24111,-12.85775 1.51836,-13.30634 1.30481,-2.11124 5.25296,-0.20982 13.01085,6.26601 1.86893,1.56007 11.48058,10.82838 21.35922,20.59625 14.28359,14.12341 17.70427,17.99403 16.70648,18.904 -0.69007,0.62934 -1.0458,1.87431 -0.79049,2.76661 0.2553,0.8923 0.77909,19.31654 1.16398,40.94276 0.3849,21.62621 0.99867,38.22815 1.36394,36.8932 0.36528,-1.33495 0.76593,-16.40777 0.89035,-33.49514 0.12441,-17.08738 0.35765,-35.40412 0.5183,-40.70386 l 0.29209,-9.63588 15.41311,-15.44691 c 20.83662,-20.8823 32.47362,-30.09783 34.91873,-27.65272 0.26574,0.26573 0.90727,5.88859 1.42564,12.49524 1.06942,13.62985 3.63688,29.89065 7.32215,46.37414 2.35588,10.53734 5.03399,20.20558 14.95455,53.98746 3.30698,11.26104 3.98944,15.0076 3.97919,21.84466 -0.0136,9.05242 -0.14045,9.90183 -2.53807,16.99029 -7.43264,21.97442 -28.71541,40.38699 -55.63942,48.13588 -8.29385,2.38702 -24.27853,4.54771 -25.49157,3.44576 l 0,0 z"
       id="path4037"
       inkscape:connector-curvature="0" />
    <path
       style="fill:#ff0000;stroke:#ff0000;stroke-width:0.97087377"
       d="m 197.11517,457.19449 c 0,-11.48059 0.14044,-16.17719 0.31209,-10.4369 0.17165,5.74029 0.17165,15.1335 0,20.87379 -0.17165,5.74029 -0.31209,1.04369 -0.31209,-10.43689 z"
       id="path4039"
       inkscape:connector-curvature="0" />
    <path
       style="fill:#ff0000;stroke:#ff0000;stroke-width:0.97087377"
       d=""
       id="path4041"
       inkscape:connector-curvature="0" />
    <path
       style="fill:#ff0000;stroke:#ff0000;stroke-width:0.97087377"
       d="m 189.42123,593.43327 c -33.26814,-4.15165 -63.02561,-26.84866 -70.88798,-54.06862 -0.93632,-3.2416 -1.65006,-9.09564 -1.6572,-13.59223 -0.0135,-8.5161 0.16891,-9.28705 11.24925,-47.54041 9.10281,-31.42617 13.16911,-52.37581 15.71988,-80.98898 0.57986,-6.50457 0.79613,-7.03884 2.84933,-7.03884 3.7452,0 12.97028,7.69825 32.30759,26.96039 12.5033,12.4547 18.19359,18.7603 17.52919,19.4247 -0.65855,0.65855 -0.7132,12.81176 -0.16532,36.76534 0.9223,40.3234 1.90616,34.09385 2.14692,-13.59371 l 0.13164,-26.07435 7.03883,-7.31038 c 9.55038,-9.91883 31.37562,-29.97165 36.15892,-33.22247 2.1393,-1.45391 4.84714,-2.88321 6.01744,-3.17622 1.93954,-0.48561 2.17324,-0.0911 2.64117,4.45863 2.19073,21.30074 2.92761,26.97475 5.06125,38.97196 2.9436,16.55145 6.61939,31.3454 13.10047,52.7255 7.36991,24.31226 8.5873,29.45321 8.93857,37.74715 1.00439,23.71445 -15.01668,46.83425 -41.57801,60.00072 -16.20264,8.03166 -32.31681,11.33452 -46.60194,9.55182 l 0,0 z"
       id="path4043"
       inkscape:connector-curvature="0" />
    <path
       style="fill:#ff0000;stroke:#ff0000;stroke-width:0.97087377"
       d="m 183.59599,592.62535 c -18.92078,-3.4864 -35.50272,-12.30035 -48.69195,-25.88171 -10.70672,-11.02504 -15.95617,-21.23101 -17.78305,-34.57378 -1.29658,-9.46972 -0.42489,-15.85424 4.28692,-31.39863 8.94869,-29.52199 15.47516,-55.39783 18.45974,-73.18839 1.27891,-7.62331 4.3725,-32.97907 4.3986,-36.05182 0.005,-0.6052 0.88867,-1.3303 1.96339,-1.61135 3.15734,-0.82566 12.37791,6.73972 32.50038,26.66624 10.15201,10.05315 18.50123,18.27846 18.55383,18.27846 0.0526,10e-6 5.07688,-5.07896 11.16505,-11.2866 21.08853,-21.50233 38.96842,-36.38073 41.1265,-34.22263 0.30194,0.30194 1.43161,8.37135 2.51037,17.93203 3.30243,29.26819 6.77941,44.32963 23.40013,101.36363 4.24291,14.55956 3.06663,28.28478 -3.55734,41.50833 -14.83465,29.61462 -54.52466,48.69574 -88.33257,42.46622 z m 14.9345,-137.61533 c 0.0636,-10.68954 -0.26963,-19.17476 -0.75296,-19.17476 -1.46783,0 -1.80887,2.1223 -1.79624,11.17809 0.01,7.16733 0.14307,7.94491 0.74545,4.35589 0.40329,-2.40291 0.60133,6.11651 0.44007,18.93204 -0.21443,17.04099 -0.0859,20.69265 0.47823,13.59224 0.42428,-5.33981 0.82273,-18.33738 0.88545,-28.8835 l 0,0 z"
       id="path4045"
       inkscape:connector-curvature="0" />
    <path
       style="fill:#ff0000;stroke:#ff0000;stroke-width:0.97087377"
       d="m 182.77119,592.58355 c -30.40916,-6.04376 -55.23211,-25.84769 -63.82875,-50.92304 -1.71155,-4.99236 -2.15714,-8.44028 -2.13304,-16.50486 0.0288,-9.64152 0.35357,-11.26932 5.99043,-30.02642 11.47742,-38.19205 16.86052,-62.76666 19.98998,-91.25704 0.78725,-7.16708 1.88828,-13.48796 2.44674,-14.04642 2.49303,-2.49303 14.39044,7.20241 37.82363,30.82324 l 14.0273,14.13962 18.49697,-18.17868 c 18.81753,-18.49372 29.39895,-27.37663 32.61135,-27.37663 1.36877,0 1.91301,0.96405 2.32943,4.12621 0.29884,2.26942 1.43313,11.07556 2.52063,19.56919 2.81635,21.99641 7.38212,42.63035 16.45459,74.36285 4.39158,15.36027 8.15557,30.51439 8.46079,34.0638 0.81859,9.51941 -1.08806,18.4638 -6.18092,28.99573 -14.25612,29.48132 -55.26513,48.93901 -89.00913,42.23245 l 0,0 z M 198.583,448.94206 c -0.13863,-12.29518 -1.42326,-16.58855 -2.03308,-6.79479 -0.18292,2.93762 -0.005,5.34053 0.39558,5.3398 0.40049,-7.3e-4 0.72815,3.05693 0.72815,6.79479 0,3.73787 0.2354,6.79612 0.5231,6.79612 0.2877,0 0.46151,-5.46116 0.38625,-12.13592 z"
       id="path4047"
       inkscape:connector-curvature="0" />
    <path
       style="fill:#ff0000;stroke:#ff0000;stroke-width:0.97087377"
       d=""
       id="path4051"
       inkscape:connector-curvature="0" />
    <path
       style="fill:#ff0000;stroke:#ff0000;stroke-width:0.97087377"
       d="m 196.3455,444.96148 c 0,-1.86894 0.1998,-2.6335 0.444,-1.69903 0.24421,0.93446 0.24421,2.46359 0,3.39806 -0.2442,0.93446 -0.444,0.1699 -0.444,-1.69903 z"
       id="path4053"
       inkscape:connector-curvature="0" />
    <path
       style="fill:#ff0000;stroke:#ff0000;stroke-width:0.97087377"
       d=""
       id="path4055"
       inkscape:connector-curvature="0" />
    <path
       style="fill:#ff0000;stroke:#ff0000;stroke-width:0.97087377"
       d="M 248.3125 388.9375 C 244.56457 389.292 234.18427 398.07229 214.8125 417.15625 L 197.0625 434.625 L 177.90625 415.71875 C 157.36323 395.4364 149.89839 389.27619 146.4375 389.78125 C 144.41896 390.07582 144.1912 391.08024 142.1875 407.09375 C 138.53541 436.28118 134.92697 452.62323 123.625 491.5625 C 114.44698 523.18399 114.21627 533.41784 122.34375 549.625 C 124.4072 553.73976 128.47194 559.93106 131.34375 563.40625 C 143.90073 578.60154 165.00788 589.99635 187.1875 593.5 C 203.57379 596.0885 225.50143 591.07909 243.21875 580.6875 C 252.791 575.07317 266.5822 561.00163 271.09375 552.25 C 279.34481 536.24439 280.13652 524.27729 274.3125 503.6875 C 260.18699 453.74928 256.0575 435.583 252.375 406.625 C 251.22062 397.54733 249.94909 389.72718 249.53125 389.28125 C 249.26095 388.99278 248.84792 388.88686 248.3125 388.9375 z M 197.59375 440.09375 C 197.64922 440.0535 197.71395 440.30143 197.78125 440.84375 C 197.99661 442.57919 197.99661 445.42082 197.78125 447.15625 C 197.56588 448.89169 197.40625 447.47088 197.40625 444 C 197.40625 441.61378 197.47171 440.1823 197.59375 440.09375 z "
       id="path4057" />
  </g>
</svg>
